<svg xmlns:xlink="http://www.w3.org/1999/xlink" xmlns="http://www.w3.org/2000/svg" viewBox="0 0 254.42 33.54" aria-labelledby="title" aria-describedby="description" role="img" class="c-footer__vox-logo" width="254.42"  height="33.54" ><title id="title">Vox Media</title>
<desc id="description">Vox Media logo.</desc><path d="M229.88,262.35a16.77,16.77,0,1,0,16.77,16.77,16.77,16.77,0,0,0-16.77-16.77m0,25.08a8.32,8.32,0,1,1,7.92-8.31,8.12,8.12,0,0,1-7.92,8.31" transform="translate(-179.16 -262.35)" fill="#4C4E4D"></path><polygon points="0 0.66 16.97 33.38 33.95 0.66 24.05 0.66 17.07 14.31 10.09 0.66 0 0.66" fill="#4C4E4D"></polygon><rect x="208.65" y="0.66" width="9" height="32.26" fill="#4C4E4D"></rect><polygon points="170.15 8.74 170.15 0.66 145.41 0.66 145.41 32.92 170.15 32.92 170.15 24.84 154.82 24.84 154.82 20.68 169.01 20.68 169.01 12.91 154.82 12.91 154.82 8.74 170.15 8.74" fill="#4C4E4D"></polygon><path d="M367.39,263H353.84v32.27h13.55a16.14,16.14,0,1,0,0-32.27m-.71,24.09h-3.74V271.19h3.74a8,8,0,1,1,0,15.91" transform="translate(-179.16 -262.35)" fill="#4C4E4D"></path><polygon points="131.07 14.94 131.07 32.92 140.17 32.92 140.17 0.66 128.9 0.66 121.92 14.12 114.94 0.66 103.67 0.66 103.67 32.92 112.57 32.92 112.57 14.94 121.82 32.77 131.07 14.94" fill="#4C4E4D"></polygon><polygon points="83.11 24.43 88.78 32.93 99.44 32.93 88.44 16.79 99.34 0.66 88.88 0.66 83.21 9.16 83.31 9.16 77.63 0.66 67.08 0.66 77.98 16.79 66.98 32.93 77.43 32.93 83.11 24.43" fill="#4C4E4D"></polygon><path d="M412.55,284.07l4-11.53,4,11.53ZM422,263H411.38l-11.62,32.27h9l1.41-4.15H423l1.4,4.15h9.21Z" transform="translate(-179.16 -262.35)" fill="#4C4E4D"></path></svg>